<svg width="35" height="35" viewBox="0 0 35 35" fill="none" xmlns="http://www.w3.org/2000/svg">
<path d="M17.5 35C7.85011 35 0 27.1499 0 17.5C0 7.85011 7.85011 0 17.5 0C27.1499 0 35 7.85011 35 17.5C35 27.1499 27.1499 35 17.5 35ZM17.5 2.1875C9.05628 2.1875 2.1875 9.05628 2.1875 17.5C2.1875 25.9437 9.05628 32.8125 17.5 32.8125C25.9437 32.8125 32.8125 25.9437 32.8125 17.5C32.8125 9.05628 25.9437 2.1875 17.5 2.1875Z" fill="black"/>
<path d="M25.1562 18.5938H9.84375C9.24 18.5938 8.75 18.1038 8.75 17.5C8.75 16.8962 9.24 16.4062 9.84375 16.4062H25.1562C25.76 16.4062 26.25 16.8962 26.25 17.5C26.25 18.1038 25.76 18.5938 25.1562 18.5938Z" fill="black"/>
<path d="M17.5 26.25C16.8962 26.25 16.4062 25.76 16.4062 25.1562V9.84375C16.4062 9.24 16.8962 8.75 17.5 8.75C18.1038 8.75 18.5938 9.24 18.5938 9.84375V25.1562C18.5938 25.76 18.1038 26.25 17.5 26.25Z" fill="black"/>
</svg>
